<svg xmlns="http://www.w3.org/2000/svg" viewBox="0 0 228.19 31.22"><defs><style>.cls-1{fill:#fff;}</style></defs><title>GP Logo White</title><g id="Layer_2" data-name="Layer 2"><g id="Layer_1-2" data-name="Layer 1"><polygon class="cls-1" points="31.23 15.88 31.23 0 15.34 0 31.23 15.88"/><polygon class="cls-1" points="7.48 0 0 0 0 7.67 23.55 31.23 31.23 31.23 31.23 23.74 7.48 0"/><polygon class="cls-1" points="0 15.53 0 31.23 15.69 31.23 0 15.53"/><path class="cls-1" d="M68.2,20.05c-.76,3.79-4.43,5.82-8.65,5.82a9.76,9.76,0,0,1-10-10,9.76,9.76,0,0,1,10-10A9.09,9.09,0,0,1,67.9,10.9a.87.87,0,0,0,.82.51h1.2c.48,0,.71-.31.54-.79A11.62,11.62,0,0,0,59.55,3.49,12.14,12.14,0,0,0,47.19,15.84,12.14,12.14,0,0,0,59.55,28.19c3.56,0,7-1.28,8.8-4.08v3a.61.61,0,0,0,.68.68h1a.62.62,0,0,0,.69-.68v-7Z"/><path class="cls-1" d="M60.84,15.74a.61.61,0,0,0-.68.68v.89a.61.61,0,0,0,.68.68h9.9V16.42a.62.62,0,0,0-.69-.68Z"/><path class="cls-1" d="M95.84,4.51l-.09-.17a.88.88,0,0,0-.82-.44h-.82a.62.62,0,0,0-.69.68V27.1a.62.62,0,0,0,.69.68h1a.61.61,0,0,0,.68-.68V8.68l0,.05Z"/><path class="cls-1" d="M108.78,3.9h-1a.62.62,0,0,0-.69.68V23L97.92,7.92v4.22l9.22,15.2a.84.84,0,0,0,.82.44h.82a.61.61,0,0,0,.68-.68V4.58A.61.61,0,0,0,108.78,3.9Z"/><path class="cls-1" d="M115.6,3.9h1a.61.61,0,0,1,.68.68V27.1a.61.61,0,0,1-.68.68h-1a.61.61,0,0,1-.68-.68V4.58A.61.61,0,0,1,115.6,3.9Z"/><path class="cls-1" d="M122.43,20.69V4.58a.61.61,0,0,1,.68-.68h1a.61.61,0,0,1,.68.68V20.69c0,3.44,2.36,5.18,5.8,5.18s5.8-1.74,5.8-5.18V4.58a.62.62,0,0,1,.69-.68h1a.61.61,0,0,1,.68.68V20.69c0,4.88-3.65,7.5-8.19,7.5S122.43,25.57,122.43,20.69Z"/><path class="cls-1" d="M142.59,21.57a.59.59,0,0,1,.65-.71h1.06c.41,0,.64.24.68.68.34,2.83,2.73,4.33,5.93,4.33,2.94,0,5.29-1.57,5.29-4.13S153.68,18,150.85,17c-3.62-1.37-7.61-2.59-7.61-7.24,0-3.95,3.48-6.24,7.2-6.24s7.09,2.18,7.44,6.11a.59.59,0,0,1-.65.71h-1.06a.62.62,0,0,1-.68-.64c-.31-2.53-2.39-3.86-5.05-3.86s-4.81,1.4-4.81,3.92c0,2.73,2.38,3.79,5.25,4.88,3.62,1.4,7.71,2.73,7.71,7.13,0,4-3.65,6.45-7.68,6.45C146.62,28.19,142.93,25.84,142.59,21.57Z"/><path class="cls-1" d="M87.63,16.87a.62.62,0,0,0,.68-.69V15.3a.62.62,0,0,0-.68-.69H80.15v2.26Z"/><path class="cls-1" d="M88.65,25.53H78.07V16.87h0V14.61h0V6.15H88.48a.61.61,0,0,0,.68-.68V4.58a.61.61,0,0,0-.68-.68H76.37a.62.62,0,0,0-.69.68V27.1a.62.62,0,0,0,.69.68H88.65a.61.61,0,0,0,.68-.68v-.89A.61.61,0,0,0,88.65,25.53Z"/><path class="cls-1" d="M171.13,3.9h-8a.7.7,0,0,0-.77.77V27a.69.69,0,0,0,.77.76h2.39a.69.69,0,0,0,.77-.76V19.25h0V15.57h0v-8h4.86a3.88,3.88,0,0,1,3.84,4,3.89,3.89,0,0,1-3.84,4h-2.78v3.68h2.78a7.68,7.68,0,1,0,0-15.35Z"/><path class="cls-1" d="M199.4,26.91l-8-22.38a.88.88,0,0,0-.89-.63h-3.38a.87.87,0,0,0-.88.63l-8,22.38c-.19.55.06.87.63.87h2.64a.84.84,0,0,0,.87-.63L183.91,23h0l2.25-6.73h0l2.68-7.88,3.71,10.92h-5.25L186.1,23h7.73l1.42,4.18a.84.84,0,0,0,.87.63h2.65C199.33,27.78,199.58,27.46,199.4,26.91Z"/><path class="cls-1" d="M215.77,3.9H213a1,1,0,0,0-.91.53l-4,6.78,2.12,3.55,6-9.94C216.61,4.29,216.37,3.9,215.77,3.9Z"/><path class="cls-1" d="M206.93,13.24l0,0-5.19-8.84a1,1,0,0,0-.91-.53h-2.76c-.6,0-.84.39-.51.92L204.94,17V27a.69.69,0,0,0,.77.76h2.39a.69.69,0,0,0,.76-.76V17l.16-.27Z"/><path class="cls-1" d="M228.19,4.44A4.44,4.44,0,1,1,223.75,0,4.44,4.44,0,0,1,228.19,4.44Zm-.43,0a4,4,0,1,0-4,4.05A4,4,0,0,0,227.76,4.44Zm-1.9,1.94c.13.18,0,.33-.18.33h-.61a.38.38,0,0,1-.34-.17l-.87-1.2h-.55V6.43a.25.25,0,0,1-.27.28h-.58a.25.25,0,0,1-.28-.28v-4a.25.25,0,0,1,.28-.28H224a1.58,1.58,0,0,1,1.72,1.52,1.56,1.56,0,0,1-.75,1.4Zm-2.55-2h.5c.46,0,.73-.2.73-.57s-.27-.57-.73-.57h-.5Z"/></g></g></svg>